<svg height="511pt" viewBox="-61 0 511 511.99956" width="511pt" xmlns="http://www.w3.org/2000/svg"><path d="m390.027344 194.761719c0 68.550781-35.421875 128.828125-88.953125 163.53125-8.066407 5.234375-14.800781 12.265625-19.539063 20.625l-69.945312 123.5625c-.15625.273437-.316406.539062-.496094.800781-7.472656 11.882812-25.128906 11.621094-32.160156-.800781l-69.945313-123.5625c-4.726562-8.347657-11.449219-15.378907-19.503906-20.59375-54.300781-35.1875-89.976563-96.679688-88.964844-166.433594 1.511719-104.859375 87.109375-190.414063 191.96875-191.8710938 6.28125-.0859374 12.496094.1249998 18.628907.6210938 100.152343 8.054687 178.910156 91.890625 178.910156 194.121094zm0 0" fill="#44bfd7"/><path d="m390.027344 194.761719c0 68.550781-35.421875 128.828125-88.953125 163.53125-8.066407 5.234375-14.800781 12.265625-19.539063 20.625l-69.945312 123.5625c-.15625.273437-.316406.539062-.496094.800781-.179688-.261719-.335938-.527344-.496094-.800781l-69.945312-123.5625c-4.726563-8.347657-11.449219-15.378907-19.503906-20.59375-54.304688-35.1875-89.976563-96.679688-88.964844-166.433594 1.445312-100.480469 80.097656-183.226563 178.933594-191.25 100.152343 8.054687 178.910156 91.890625 178.910156 194.121094zm0 0" fill="#7cd2e3"/><path d="m339.070312 194.527344c0 79.441406-64.414062 143.808594-143.808593 143.808594-79.421875 0-143.804688-64.382813-143.804688-143.808594 0-85.367188 74.105469-152.316406 159.636719-142.929688 71.972656 7.886719 127.976562 68.867188 127.976562 142.929688zm0 0" fill="#c2eaf2"/><path d="m339.070312 194.527344c0 74.074218-56.003906 135.058594-127.976562 142.941406-71.972656-7.882812-127.972656-68.867188-127.972656-142.941406 0-74.0625 56-135.042969 127.972656-142.929688 71.972656 7.886719 127.976562 68.867188 127.976562 142.929688zm0 0" fill="#def4f8"/><path d="m304.800781 286.277344c-32.761719-46.339844-30.179687-45.964844-70.988281-64.820313 15.925781-11.910156 26.238281-30.921875 26.238281-52.339843 0-36.070313-29.242187-65.3125-65.3125-65.3125-36.070312 0-65.308593 29.242187-65.308593 65.3125 0 21.417968 10.308593 40.429687 26.238281 52.339843-41.523438 19.183594-38.621094 19.03125-71 64.839844l-.09375.054687c57.179687 68.820313 162.40625 69.371094 220.289062 1.273438zm0 0" fill="#5db33a"/><path d="m100.742188 263.554688-16.074219 22.742187-.09375.054687c26.386719 31.757813 66.175781 51.984376 110.691406 51.984376 5.351563 0 10.628906-.296876 15.832031-.863282-47.664062-5.226562-88.328125-33.730468-110.355468-73.917968zm0 0" fill="#498d2d"/></svg>